<?xml version="1.0" encoding="UTF-8"?>
<svg version="1.1" xmlns="http://www.w3.org/2000/svg" width="500" height="500">
<path d="M0 0 C165 0 330 0 500 0 C500 165 500 330 500 500 C335 500 170 500 0 500 C0 335 0 170 0 0 Z " fill="#FEFEFE" transform="translate(0,0)"/>
<path d="M0 0 C1.98 0 3.96 0 6 0 C6 7.92 6 15.84 6 24 C14.25 24 22.5 24 31 24 C31 26.31 31 28.62 31 31 C25.06 31 19.12 31 13 31 C14.051875 32.19625 15.10375 33.3925 16.1875 34.625 C19.17849702 38.04154538 22.11041375 41.49747121 25 45 C23.35 46.32 21.7 47.64 20 49 C16.04 45.04 12.08 41.08 8 37 C7.67 42.61 7.34 48.22 7 54 C4.69 54 2.38 54 0 54 C-0.33 48.39 -0.66 42.78 -1 37 C-4.96 40.96 -8.92 44.92 -13 49 C-17 47 -17 47 -19 44 C-15.04 40.04 -11.08 36.08 -7 32 C-12.94 31.67 -18.88 31.34 -25 31 C-25 28.69 -25 26.38 -25 24 C-18.73 23.67 -12.46 23.34 -6 23 C-9.96 19.04 -13.92 15.08 -18 11 C-17.34 9.68 -16.68 8.36 -16 7 C-12 7 -12 7 -9.203125 9.40625 C-8.20650492 10.42567098 -7.22455382 11.45946381 -6.25 12.5 C-4.5175 14.315 -2.785 16.13 -1 18 C-0.67 12.06 -0.34 6.12 0 0 Z " fill="#3A7CF4" transform="translate(186,227)"/>
<path d="M0 0 C8.25 0 16.5 0 25 0 C25 7.92 25 15.84 25 24 C16.75 24 8.5 24 0 24 C0 16.08 0 8.16 0 0 Z " fill="#FCFCF0" transform="translate(192,227)"/>
<path d="M0 0 C4.29 0 8.58 0 13 0 C13 0.66 13 1.32 13 2 C13.99 1.34 14.98 0.68 16 0 C18.76020996 -0.37167184 21.18852476 -0.17850636 24 0 C26 2 26 2 26 5 C25.01 5 24.02 5 23 5 C23 4.34 23 3.68 23 3 C21.02 3 19.04 3 17 3 C17.636397 6.0836385 17.636397 6.0836385 19.8125 6.9140625 C20.534375 7.14867187 21.25625 7.38328125 22 7.625 C25.93048128 8.93048128 25.93048128 8.93048128 27 10 C27.25 12.4375 27.25 12.4375 27 15 C23.60102327 17.26598448 22.43680827 17.23742654 18.45703125 17.1953125 C16.84731445 17.18564453 16.84731445 17.18564453 15.20507812 17.17578125 C13.52575195 17.15064453 13.52575195 17.15064453 11.8125 17.125 C10.68134766 17.11597656 9.55019531 17.10695313 8.38476562 17.09765625 C5.58975371 17.07406965 2.79485041 17.03819841 0 17 C0 11.39 0 5.78 0 0 Z " fill="#FDF6FA" transform="translate(329,253)"/>
<path d="M0 0 C9.57 0 19.14 0 29 0 C29 9.24 29 18.48 29 28 C27.02 28 25.04 28 23 28 C23 20.74 23 13.48 23 6 C15.41 6 7.82 6 0 6 C0 4.02 0 2.04 0 0 Z " fill="#D6438E" transform="translate(196,219)"/>
<path d="M0 0 C2.875 1.5625 2.875 1.5625 5 4 C5.9375 7.5625 5.9375 7.5625 6 11 C5.01 12.485 5.01 12.485 4 14 C4.31506627 17.14221967 4.31506627 17.14221967 5 20 C4.01 20.33 3.02 20.66 2 21 C1.34 20.01 0.68 19.02 0 18 C-2.09063583 17.35139736 -2.09063583 17.35139736 -4.4375 17.0625 C-8.75286372 16.20220241 -8.75286372 16.20220241 -11.0625 14.3125 C-12.4312244 10.93631315 -12.50660538 8.60956333 -12 5 C-8.57935012 0.12816532 -5.85570965 -0.94109619 0 0 Z " fill="#D85096" transform="translate(304,253)"/>
<path d="M0 0 C3.46145669 0.86536417 4.94931405 2.62635769 6.9375 5.484375 C7.55054266 9.16263095 7.19872201 10.95005726 5.5625 14.296875 C3.9375 16.484375 3.9375 16.484375 1.9375 17.484375 C-5.06119622 18.17277135 -5.06119622 18.17277135 -9.0625 15.421875 C-11.59225133 11.70630274 -11.8503128 9.8961267 -11.0625 5.484375 C-8.00965334 1.00050647 -5.26530818 -0.35899829 0 0 Z " fill="#4382F4" transform="translate(248.0625,252.515625)"/>
<path d="M0 0 C3.5060303 0.86943897 4.94966563 2.56083702 6.9375 5.48046875 C7.7253128 9.89222045 7.46725133 11.70239649 4.9375 15.41796875 C0.78669686 18.27164591 -1.0926078 18.19045335 -6.0625 17.48046875 C-9.40675629 14.90796391 -10.87949852 12.85297982 -11.4375 8.66796875 C-11.0625 5.48046875 -11.0625 5.48046875 -9.0625 2.60546875 C-5.72064571 0.23832196 -4.00209545 -0.28044987 0 0 Z " fill="#407FF4" transform="translate(267.0625,252.51953125)"/>
<path d="M0 0 C1.588125 -0.061875 3.17625 -0.12375 4.8125 -0.1875 C6.15248047 -0.23970703 6.15248047 -0.23970703 7.51953125 -0.29296875 C10 0 10 0 11.83984375 1.3828125 C13 3 13 3 12.75 5.0625 C12 7 12 7 11 9 C11.99 9.33 12.98 9.66 14 10 C13.25 14.75 13.25 14.75 11 17 C7.31975395 17.27629475 3.69505443 17.0859315 0 17 C0 11.39 0 5.78 0 0 Z " fill="#5E94F6" transform="translate(222,253)"/>
<path d="M0 0 C3.96 0 7.92 0 12 0 C12 0.99 12 1.98 12 3 C9.36 3 6.72 3 4 3 C4 4.32 4 5.64 4 7 C6.31 7 8.62 7 11 7 C11 7.99 11 8.98 11 10 C8.69 10 6.38 10 4 10 C4 11.32 4 12.64 4 14 C6.64 14 9.28 14 12 14 C12 14.99 12 15.98 12 17 C8.04 17 4.08 17 0 17 C0 11.39 0 5.78 0 0 Z " fill="#DA599B" transform="translate(329,253)"/>
<path d="M0 0 C1.32 0 2.64 0 4 0 C4.33 2.31 4.66 4.62 5 7 C6.65 4.69 8.3 2.38 10 0 C11.32 0.33 12.64 0.66 14 1 C11.525 4.465 11.525 4.465 9 8 C10.98 10.97 12.96 13.94 15 17 C9.54050926 15.90810185 8.98528919 15.31208438 6 11 C5.34 12.98 4.68 14.96 4 17 C2.68 17 1.36 17 0 17 C0 11.39 0 5.78 0 0 Z " fill="#508BF5" transform="translate(276,253)"/>
<path d="M0 0 C0.70125 0.00515625 1.4025 0.0103125 2.125 0.015625 C2.82625 0.01046875 3.5275 0.0053125 4.25 0 C6.125 0.265625 6.125 0.265625 8.125 2.265625 C8.125 3.255625 8.125 4.245625 8.125 5.265625 C7.135 5.265625 6.145 5.265625 5.125 5.265625 C5.125 4.605625 5.125 3.945625 5.125 3.265625 C3.145 3.265625 1.165 3.265625 -0.875 3.265625 C-0.238603 6.3492635 -0.238603 6.3492635 1.9375 7.1796875 C2.659375 7.41429687 3.38125 7.64890625 4.125 7.890625 C8.05548128 9.19610628 8.05548128 9.19610628 9.125 10.265625 C9.375 12.703125 9.375 12.703125 9.125 15.265625 C5.05650591 17.97795439 2.96023216 17.57262387 -1.875 17.265625 C-2.535 16.605625 -3.195 15.945625 -3.875 15.265625 C-3.875 14.275625 -3.875 13.285625 -3.875 12.265625 C-2.885 12.265625 -1.895 12.265625 -0.875 12.265625 C-0.545 12.925625 -0.215 13.585625 0.125 14.265625 C1.775 14.265625 3.425 14.265625 5.125 14.265625 C5.125 13.275625 5.125 12.285625 5.125 11.265625 C4.55910156 11.06066406 3.99320312 10.85570312 3.41015625 10.64453125 C2.67667969 10.37511719 1.94320313 10.10570312 1.1875 9.828125 C0.45660156 9.56128906 -0.27429688 9.29445313 -1.02734375 9.01953125 C-2.875 8.265625 -2.875 8.265625 -3.875 7.265625 C-4.0625 4.828125 -4.0625 4.828125 -3.875 2.265625 C-1.875 0.265625 -1.875 0.265625 0 0 Z " fill="#D84F95" transform="translate(346.875,252.734375)"/>
<path d="M0 0 C0.99 0 1.98 0 3 0 C3.33 4.62 3.66 9.24 4 14 C5.98 13.67 7.96 13.34 10 13 C10.33 8.71 10.66 4.42 11 0 C11.99 0 12.98 0 14 0 C14.08097324 2.27024968 14.13917704 4.54132075 14.1875 6.8125 C14.22230469 8.07707031 14.25710938 9.34164063 14.29296875 10.64453125 C14 14 14 14 12.703125 15.921875 C9.7782894 17.77337643 7.34728372 17.41106993 4 17 C1.79296875 15.39453125 1.79296875 15.39453125 0 13 C-0.390625 9.765625 -0.390625 9.765625 -0.25 6.25 C-0.21390625 5.07953125 -0.1778125 3.9090625 -0.140625 2.703125 C-0.09421875 1.81109375 -0.0478125 0.9190625 0 0 Z " fill="#D74B93" transform="translate(312,253)"/>
<path d="M0 0 C1.9375 1.0625 1.9375 1.0625 3 3 C2.8125 6.625 2.8125 6.625 2 10 C-0.79870027 11.39935013 -2.90498792 11.25265405 -6 11 C-7.875 9.8125 -7.875 9.8125 -9 8 C-9.42822025 5.14519831 -9.40659584 3.65507108 -7.875 1.1875 C-5.12844028 -0.55198782 -3.18153026 -0.39769128 0 0 Z " fill="#F7FAFE" transform="translate(268,256)"/>
<path d="M0 0 C1.875 1.1875 1.875 1.1875 3 3 C3.42822025 5.85480169 3.40659584 7.34492892 1.875 9.8125 C-0.87155972 11.55198782 -2.81846974 11.39769128 -6 11 C-7.875 9.8125 -7.875 9.8125 -9 8 C-9.42822025 5.14519831 -9.40659584 3.65507108 -7.875 1.1875 C-5.12844028 -0.55198782 -3.18153026 -0.39769128 0 0 Z " fill="#F8FAFE" transform="translate(249,256)"/>
<path d="M0 0 C2 2 2 2 2.25 5.5 C2 9 2 9 0 11 C-3.5 11.3125 -3.5 11.3125 -7 11 C-9 8 -9 8 -8.75 4.375 C-8.5025 3.26125 -8.255 2.1475 -8 1 C-5.23749964 -0.38125018 -3.05268901 -0.19079306 0 0 Z " fill="#FEFAFC" transform="translate(304,256)"/>
<path d="M0 0 C2.64 0 5.28 0 8 0 C8 0.66 8 1.32 8 2 C6.02 2 4.04 2 2 2 C2 3.32 2 4.64 2 6 C3.98 6 5.96 6 8 6 C7.67 6.66 7.34 7.32 7 8 C5.35 8 3.7 8 2 8 C2 9.98 2 11.96 2 14 C3.98 13.67 5.96 13.34 8 13 C8.33 11.35 8.66 9.7 9 8 C10.32 8.33 11.64 8.66 13 9 C12.25 13.75 12.25 13.75 10 16 C7.6171875 16.1953125 7.6171875 16.1953125 4.875 16.125 C3.26625 16.08375 1.6575 16.0425 0 16 C0 10.72 0 5.44 0 0 Z " fill="#3679F4" transform="translate(223,254)"/>
<path d="M0 0 C4.29 0 8.58 0 13 0 C13 0.99 13 1.98 13 3 C11.35 3 9.7 3 8 3 C8 7.62 8 12.24 8 17 C7.01 17 6.02 17 5 17 C5 12.38 5 7.76 5 3 C3.35 3 1.7 3 0 3 C0 2.01 0 1.02 0 0 Z " fill="#D74992" transform="translate(357,253)"/>
<path d="M0 0 C1.98 0.495 1.98 0.495 4 1 C3.75 3.375 3.75 3.375 3 6 C0.9375 7.3125 0.9375 7.3125 -1 8 C-0.67 5.36 -0.34 2.72 0 0 Z " fill="#4F8AF5" transform="translate(232,262)"/>
<path d="M0 0 C1.98 0 3.96 0 6 0 C6 1.32 6 2.64 6 4 C4.02 4 2.04 4 0 4 C0 2.68 0 1.36 0 0 Z " fill="#EAF1FD" transform="translate(225,256)"/>
<path d="M0 0 C1.98 0 3.96 0 6 0 C6 1.32 6 2.64 6 4 C4.02 4 2.04 4 0 4 C0 2.68 0 1.36 0 0 Z " fill="#FDFDFE" transform="translate(226,263)"/>
<path d="M0 0 C1.32 0.33 2.64 0.66 4 1 C-0.625 5.875 -0.625 5.875 -4 7 C-2.79618552 4.50638429 -1.54571278 2.31856917 0 0 Z " fill="#4684F5" transform="translate(286,253)"/>
<path d="M0 0 C2.5625 0.1875 2.5625 0.1875 4.5625 2.1875 C4.5625 3.1775 4.5625 4.1675 4.5625 5.1875 C3.5725 5.1875 2.5825 5.1875 1.5625 5.1875 C1.2325 4.5275 0.9025 3.8675 0.5625 3.1875 C-1.45419827 2.05399466 -1.45419827 2.05399466 -3.4375 1.1875 C-2.4375 0.1875 -2.4375 0.1875 0 0 Z " fill="#D74C94" transform="translate(350.4375,252.8125)"/>
<path d="M0 0 C0.66 0.33 1.32 0.66 2 1 C0.625 3.5 0.625 3.5 -1 6 C-1.66 6 -2.32 6 -3 6 C-3.33 7.65 -3.66 9.3 -4 11 C-4.33 11 -4.66 11 -5 11 C-5.3125 8.3125 -5.3125 8.3125 -5 5 C-2.5 2.125 -2.5 2.125 0 0 Z " fill="#4C88F5" transform="translate(261,253)"/>
</svg>
