<?xml version="1.0" standalone="no"?>
<!DOCTYPE svg PUBLIC "-//W3C//DTD SVG 20010904//EN"
 "http://www.w3.org/TR/2001/REC-SVG-20010904/DTD/svg10.dtd">
<svg version="1.0" xmlns="http://www.w3.org/2000/svg"
 width="300.000000pt" height="300.000000pt" viewBox="0 0 300.000000 300.000000"
 preserveAspectRatio="xMidYMid meet">
<metadata>
Created by potrace 1.10, written by Peter Selinger 2001-2011
</metadata>
<g transform="translate(0.000000,300.000000) scale(0.100000,-0.100000)"
fill="#000000" stroke="none">
<path d="M1170 1670 c0 -18 7 -20 76 -20 l76 0 -4 -65 c-3 -57 -1 -65 15 -65
15 0 17 11 17 85 l0 85 -90 0 c-83 0 -90 -1 -90 -20z"/>
<path d="M1120 1578 l0 -62 -45 44 c-35 34 -48 41 -57 32 -9 -9 -2 -22 32 -58
l45 -46 -65 4 c-59 3 -65 1 -65 -17 0 -18 5 -20 59 -16 46 2 63 8 77 24 17 21
17 22 38 3 37 -34 17 -67 -24 -40 -18 12 -25 8 -68 -33 -44 -41 -47 -47 -33
-61 13 -14 20 -10 60 34 l45 49 1 -62 c0 -57 2 -63 20 -63 20 0 21 4 14 60 -4
33 -4 60 -1 60 4 0 24 -19 46 -42 32 -35 42 -41 52 -30 11 10 4 21 -31 58
l-45 46 65 -4 c58 -3 65 -1 65 16 0 17 -7 19 -77 17 l-78 -2 0 75 c0 61 -3 76
-15 76 -12 0 -15 -14 -15 -62z"/>
<path d="M1453 1479 c-31 -11 -40 -54 -18 -79 46 -51 125 9 83 62 -18 21 -39
27 -65 17z m55 -52 c-2 -17 -10 -22 -33 -22 -35 0 -47 31 -20 51 25 18 57 0
53 -29z"/>
<path d="M1330 1430 l0 -51 38 3 c37 3 37 3 37 48 0 45 0 45 -37 48 l-38 3 0
-51z m54 -6 c20 -8 11 -24 -15 -24 -19 0 -25 11 -12 23 8 8 8 8 27 1z"/>
<path d="M1552 1468 c-7 -7 -12 -24 -12 -38 0 -14 5 -31 12 -38 7 -7 24 -12
38 -12 14 0 31 5 38 12 7 7 12 24 12 38 0 14 -5 31 -12 38 -7 7 -24 12 -38 12
-14 0 -31 -5 -38 -12z m62 -14 c27 -26 12 -58 -25 -52 -27 3 -37 32 -19 53 16
19 25 19 44 -1z"/>
<path d="M1660 1430 c0 -52 13 -67 24 -27 l6 22 19 -25 c11 -14 23 -21 27 -17
4 4 0 15 -9 25 -21 23 -21 31 0 54 11 12 12 18 4 18 -7 0 -21 -10 -32 -22
l-18 -23 -1 23 c0 12 -4 22 -10 22 -5 0 -10 -22 -10 -50z"/>
<path d="M1758 1455 c-17 -38 3 -75 42 -75 16 0 30 -4 30 -10 0 -5 5 -10 11
-10 6 0 8 8 4 19 -3 11 -1 22 5 26 5 3 10 15 10 25 0 50 -81 70 -102 25z m80
-28 c-2 -17 -10 -22 -33 -22 -35 0 -47 31 -20 51 25 18 57 0 53 -29z"/>
<path d="M1870 1442 c0 -43 14 -62 45 -62 12 0 26 5 33 12 14 14 16 88 2 88
-5 0 -10 -15 -10 -33 0 -18 -5 -38 -12 -45 -18 -18 -38 5 -38 44 0 19 -4 34
-10 34 -5 0 -10 -17 -10 -38z"/>
<path d="M1980 1430 l0 -50 35 0 c21 0 35 5 35 12 0 9 3 9 12 0 18 -18 65 -15
72 4 8 21 -11 44 -35 44 -11 0 -19 7 -19 15 0 18 27 20 33 3 2 -7 8 -10 12 -5
14 12 -11 29 -36 25 -37 -5 -37 -37 0 -51 33 -12 37 -34 5 -29 -10 2 -38 3
-61 2 -24 0 -43 4 -43 10 0 5 11 10 25 10 14 0 25 5 25 10 0 6 -12 10 -26 10
-16 0 -24 5 -21 13 2 6 13 11 25 9 11 -2 23 2 27 8 4 6 -7 10 -29 10 l-36 0 0
-50z"/>
<path d="M2140 1469 c0 -6 7 -9 15 -5 12 4 15 -4 15 -39 0 -25 5 -45 10 -45 6
0 10 20 10 45 0 35 3 43 15 39 8 -4 15 -1 15 5 0 6 -17 11 -40 11 -23 0 -40
-5 -40 -11z"/>
</g>
</svg>
